

<svg version="1.1" xmlns="http://www.w3.org/2000/svg" width="66" height="38">
  <defs>
    <linearGradient id="top-down" x1="0" y1="0" x2="1" y2="1">
      <stop offset="0%" stop-color="#f5f5f5" />
      <stop offset="100%" stop-color="#fcfcfc" />
    </linearGradient>
  </defs>
  <!-- width: 44 height: 38 -->
  <path fill="url(#top-down)" d="m 11,0 l 22,0 11,19 -11,19 -22,0 -11,-19 Z" transform="translate(0, 0)" />
  <path fill="url(#top-down)" d="m 11,0 l 22,0 11,19 -11,19 -22,0 -11,-19 Z" transform="translate(33, 19)" />
  <path fill="url(#top-down)" d="m 11,0 l 22,0 11,19 -11,19 -22,0 -11,-19 Z" transform="translate(33, -19)" />
  <path fill="url(#top-down)" d="m 11,0 l 22,0 11,19 -11,19 -22,0 -11,-19 Z" transform="translate(-33, 19)" />
  <path fill="url(#top-down)" d="m 11,0 l 22,0 11,19 -11,19 -22,0 -11,-19 Z" transform="translate(-33, -19)" />
</svg>
